# xmcd
#
# Track frame offsets: 
#        150
#        24300
#        43900
#        63012
#        82200
#        96487
#        112162
#        132400
#        166175
#        188175
#
# Disc length: 2815 seconds
#
# Revision: 8
# Processed by: cddbd v1.5.2PL0 Copyright (c) Steve Scherf et al.
# Submitted via: ExactAudioCopyFreeDBPlugin 1.0
#
DISCID=8a0afd0a
DTITLE=Bob Dylan - Empire Burlesque
DYEAR=1985
DGENRE=Rock
TTITLE0=Tight Connection To My Heart (Has Anybody Seen My Love)
TTITLE1=Seeing The Real You At Last
TTITLE2=I'll Remember You
TTITLE3=Clean Cut Kid
TTITLE4=Never Gonna Be The Same  Again
TTITLE5=Trust Yourself
TTITLE6=Emotionally Yours
TTITLE7=When The Night Comes Falling From The Sky
TTITLE8=Something's Burning, Baby
TTITLE9=Dark Eyes
EXTD=YEAR: 1985
EXTT0=
EXTT1=
EXTT2=
EXTT3=
EXTT4=
EXTT5=
EXTT6=
EXTT7=
EXTT8=
EXTT9=
PLAYORDER=
